# xmcd
#
# Track frame offsets:
#	150
#	15285
#	25808
#	38152
#	55153
#	66627
#	76463
#	88824
#	108681
#	120175
#	137285
#	152659
#	169231
#	181752
#	196670
#	209092
#
# Disc length: 2958 seconds
#
# Revision: 0
# Processed by: cddbd v1.5.1PL0 Copyright (c) Steve Scherf et al.
# Submitted via: EasyCDDAExtractor 8.2.0.1
#
DISCID=ce0b8c10
DTITLE=Albert King - King of the Blues Guitar
DYEAR=1969
DGENRE=Blues
TTITLE0=Laundromat Blues
TTITLE1=Overall Junction
TTITLE2=Oh, Pretty Woman
TTITLE3=Funk-Shun
TTITLE4=Crosscut Saw
TTITLE5=Down Don't Bother Me
TTITLE6=Born Under A Bad Sign
TTITLE7=Personal Manager
TTITLE8=Kansas City
TTITLE9=The Very Thought Of You
TTITLE10=I Almost Lost My Mind
TTITLE11=As the Years Go Passing By
TTITLE12=Cold Feet
TTITLE13=You Sure Drive a Hard Bargain
TTITLE14=I Love Lucy
TTITLE15=You're Gonna Need Me
EXTD=
EXTT0=
EXTT1=
EXTT2=
EXTT3=
EXTT4=
EXTT5=
EXTT6=
EXTT7=
EXTT8=
EXTT9=
EXTT10=
EXTT11=
EXTT12=
EXTT13=
EXTT14=
EXTT15=
PLAYORDER=
